<?xml version="1.0" encoding="UTF-8" standalone="no"?>
<svg
   xmlns:dc="http://purl.org/dc/elements/1.1/"
   xmlns:cc="http://creativecommons.org/ns#"
   xmlns:rdf="http://www.w3.org/1999/02/22-rdf-syntax-ns#"
   xmlns:svg="http://www.w3.org/2000/svg"
   xmlns="http://www.w3.org/2000/svg"
   xmlns:sodipodi="http://sodipodi.sourceforge.net/DTD/sodipodi-0.dtd"
   xmlns:inkscape="http://www.inkscape.org/namespaces/inkscape"
   inkscape:version="1.0 (4035a4f, 2020-05-01)"
   sodipodi:docname="eye.svg"
   xml:space="preserve"
   style="enable-background:new 0 0 297 297;"
   viewBox="0 0 297 297"
   y="0px"
   x="0px"
   id="Capa_1"
   version="1.1"><metadata
   id="metadata991"><rdf:RDF><cc:Work
       rdf:about=""><dc:format>image/svg+xml</dc:format><dc:type
         rdf:resource="http://purl.org/dc/dcmitype/StillImage" /></cc:Work></rdf:RDF></metadata><defs
   id="defs989" /><sodipodi:namedview
   inkscape:current-layer="Capa_1"
   inkscape:window-maximized="1"
   inkscape:window-y="27"
   inkscape:window-x="0"
   inkscape:cy="148.5"
   inkscape:cx="148.5"
   inkscape:zoom="4.016835"
   showgrid="false"
   id="namedview987"
   inkscape:window-height="1376"
   inkscape:window-width="2560"
   inkscape:pageshadow="2"
   inkscape:pageopacity="0"
   guidetolerance="10"
   gridtolerance="10"
   objecttolerance="10"
   borderopacity="1"
   bordercolor="#666666"
   pagecolor="#ffffff" />
<path
   id="path954"
   d="m 294.90447,153.36662 c -2.787,-4.447 -15.897,-24.469 -38.049,-44.607 -32.998,-29.998009 -70.482,-45.855009 -108.402,-45.855009 -37.921,0 -75.406004,15.857 -108.407004,45.855009 -24.584,22.348 -38.0400004,44.561 -38.6020004,45.494 -0.046,0.076 -0.067,0.133 -0.108,0.207 -2.04299995,3.58 -1.81099995,8.084 0.712,11.447 0.567,0.756 14.1680004,18.721 38.8800004,36.691 32.841,23.887 70.020004,36.512 107.520004,36.512 37.5,0 74.681,-12.625 107.523,-36.51 24.712,-17.973 38.315,-35.938 38.882,-36.693 2.794,-3.724 2.81,-8.843 0.051,-12.541 z m -52.557,-29.529 c 12.041,10.881 21.241,21.871 27.209,29.758 -4.657,0.818 -10.574,1.461 -17.688,1.461 -24.835,0 -52.252,-7.412 -81.488,-22.029 -27.013,-13.508 -53.199,-20.355 -77.830004,-20.355 -10.481,0 -20.027,1.236 -28.679,3.254 26.708,-21.309009 55.110004,-32.107009 84.581004,-32.107009 32.923,-10e-4 64.515,13.463 93.895,40.018009 z m -92.82,94.33 c -0.255,0.004 -0.508,0.006 -0.761,0.006 -30.753,0 -57.030004,-24.543 -58.756004,-55.059 -0.576,-10.182 1.532,-20.449 5.967,-29.467 14.750004,0.443 30.273004,3.752 46.367004,9.863 -6.513,2.467 -11.15,8.746 -11.15,16.123 0,9.529 7.725,17.254 17.254,17.254 9.53,0 17.255,-7.725 17.255,-17.254 0,-2.188 -0.423,-4.27 -1.165,-6.195 14.216,6.877 28.109,12.195 41.607,15.93 -4.777,26.944 -29.253,48.44 -56.618,48.799 z m -125.167004,-58.254 c 7.854,-7.486 24.003,-19.863 48.444,-24.496 -2.939,9.27 -4.228,19.109 -3.676,28.879 0.802,14.186 5.504,27.418 13.009,38.691 -9.661,-4.6 -19.119,-10.234 -28.351,-16.899 -13.692,-9.884 -23.698,-19.878 -29.426,-26.175 z m 218.753004,26.176 c -9.23,6.662 -18.688,12.297 -28.347,16.897 5.749,-8.693 9.864,-18.547 11.835,-29.119 8.616,1.387 17.05,2.105 25.268,2.105 0,0 0,0 0.002,0 1.422,0 2.805,-0.021 4.151,-0.063 -3.842,3.301 -8.153,6.746 -12.909,10.18 z" />
<g
   id="g956">
</g>
<g
   id="g958">
</g>
<g
   id="g960">
</g>
<g
   id="g962">
</g>
<g
   id="g964">
</g>
<g
   id="g966">
</g>
<g
   id="g968">
</g>
<g
   id="g970">
</g>
<g
   id="g972">
</g>
<g
   id="g974">
</g>
<g
   id="g976">
</g>
<g
   id="g978">
</g>
<g
   id="g980">
</g>
<g
   id="g982">
</g>
<g
   id="g984">
</g>
<ellipse
   ry="31.431278"
   rx="32.283768"
   cy="167.03818"
   cx="147.03313"
   id="path1002"
   style="opacity:1;fill:#000000;fill-opacity:1;stroke:#000000;stroke-width:0.695427;stroke-miterlimit:4;stroke-dasharray:none;stroke-opacity:1" /><ellipse
   ry="6.915391"
   rx="8.4375715"
   cy="161.53117"
   cx="157.31149"
   id="path1006"
   style="opacity:1;fill:#ffffff;fill-opacity:1;stroke:#000000;stroke-width:0.377953;stroke-miterlimit:4;stroke-dasharray:none;stroke-opacity:1" /><path
   id="path1008"
   d="m 246.83549,154.56236 c -12.14805,-0.5855 -26.5856,-3.28931 -40.33685,-7.5541 -11.99704,-3.72077 -21.14156,-7.43943 -36.60992,-14.8876 -10.13186,-4.87859 -15.90564,-7.41223 -22.42274,-9.83953 -14.2459,-5.30591 -26.9482,-8.52289 -40.21488,-10.18482 -6.37997,-0.79923 -10.722512,-1.05234 -18.049454,-1.05207 -9.19815,2.4e-4 -17.389987,0.78088 -25.458781,2.42577 -1.633,0.3329 -2.993858,0.58233 -3.024127,0.55427 -0.180082,-0.16691 9.214953,-7.00028 13.116491,-9.54014 19.549451,-12.726434 38.479001,-19.789774 60.057091,-22.409592 4.69001,-0.56942 19.94947,-0.650114 24.71432,-0.130692 4.89755,0.533889 10.85647,1.510434 15.32613,2.511638 33.59386,7.525047 66.69317,30.308006 94.21111,64.847486 1.93374,2.42716 2.88763,3.81898 2.68913,3.9237 -0.5038,0.26574 -6.69343,0.99659 -10.67996,1.26102 -3.45389,0.22911 -9.41923,0.26255 -13.31756,0.0747 z"
   style="opacity:1;fill:#030000;fill-opacity:1;stroke:none;stroke-width:0.0969757;stroke-miterlimit:4;stroke-dasharray:none;stroke-opacity:1" /></svg>
