<?xml version="1.0" encoding="UTF-8" standalone="no"?>
<svg
   xmlns:osb="http://www.openswatchbook.org/uri/2009/osb"
   xmlns:dc="http://purl.org/dc/elements/1.1/"
   xmlns:cc="http://creativecommons.org/ns#"
   xmlns:rdf="http://www.w3.org/1999/02/22-rdf-syntax-ns#"
   xmlns:svg="http://www.w3.org/2000/svg"
   xmlns="http://www.w3.org/2000/svg"
   xmlns:xlink="http://www.w3.org/1999/xlink"
   xmlns:sodipodi="http://sodipodi.sourceforge.net/DTD/sodipodi-0.dtd"
   xmlns:inkscape="http://www.inkscape.org/namespaces/inkscape"
   height="540"
   width="900"
   version="1.1"
   id="Capa_1"
   x="0px"
   y="0px"
   viewBox="0 0 900 540"
   xml:space="preserve"
   sodipodi:docname="eye.svg"
   inkscape:version="1.0 (4035a4f, 2020-05-01)"><metadata
   id="metadata991"><rdf:RDF><cc:Work
       rdf:about=""><dc:format>image/svg+xml</dc:format><dc:type
         rdf:resource="http://purl.org/dc/dcmitype/StillImage" /><dc:title></dc:title></cc:Work></rdf:RDF></metadata><defs
   id="defs989"><linearGradient
     inkscape:collect="always"
     id="linearGradient14030"><stop
       style="stop-color:#b32961;stop-opacity:1"
       offset="0"
       id="stop14026" /><stop
       style="stop-color:#2d1177;stop-opacity:1"
       offset="1"
       id="stop14028" /></linearGradient><linearGradient
     id="linearGradient14008"
     inkscape:collect="always"><stop
       id="stop14004"
       offset="0"
       style="stop-color:#2d1177;stop-opacity:1" /><stop
       id="stop14006"
       offset="1"
       style="stop-color:#8a204e;stop-opacity:0.98537612" /></linearGradient><linearGradient
     id="linearGradient14000"
     inkscape:collect="always"><stop
       id="stop13996"
       offset="0"
       style="stop-color:#38169b;stop-opacity:1" /><stop
       id="stop13998"
       offset="1"
       style="stop-color:#f03244;stop-opacity:1" /></linearGradient><linearGradient
     osb:paint="solid"
     id="linearGradient13986"><stop
       id="stop13984"
       offset="0"
       style="stop-color:#000000;stop-opacity:1;" /></linearGradient><linearGradient
     osb:paint="gradient"
     id="linearGradient6994"><stop
       id="stop6990"
       offset="0"
       style="stop-color:#000000;stop-opacity:1;" /><stop
       id="stop6992"
       offset="1"
       style="stop-color:#000000;stop-opacity:0;" /></linearGradient><linearGradient
     gradientTransform="matrix(2.8401872,0.04181849,-0.04181849,2.8401872,31.593429,-169.40564)"
     gradientUnits="userSpaceOnUse"
     y2="69.608505"
     x2="204.51599"
     y1="135.31239"
     x1="160.79825"
     id="linearGradient14002"
     xlink:href="#linearGradient14000"
     inkscape:collect="always" /><linearGradient
     gradientTransform="matrix(2.840495,0,0,2.840495,29.287233,-159.08443)"
     gradientUnits="userSpaceOnUse"
     y2="230.49571"
     x2="146.61765"
     y1="80.250877"
     x1="146.47725"
     id="linearGradient14010"
     xlink:href="#linearGradient14008"
     inkscape:collect="always" /><radialGradient
     gradientUnits="userSpaceOnUse"
     gradientTransform="matrix(-1.9795172,4.5102777,-4.4405698,-1.9489229,1478.5915,-29.013979)"
     r="32.631481"
     fy="167.41913"
     fx="148.00157"
     cy="167.41913"
     cx="148.00157"
     id="radialGradient14024"
     xlink:href="#linearGradient14030"
     inkscape:collect="always" /></defs><sodipodi:namedview
   showguides="false"
   inkscape:document-rotation="0"
   pagecolor="#ffffff"
   bordercolor="#666666"
   borderopacity="1"
   objecttolerance="10"
   gridtolerance="10"
   guidetolerance="10"
   inkscape:pageopacity="0"
   inkscape:pageshadow="2"
   inkscape:window-width="2560"
   inkscape:window-height="1376"
   id="namedview987"
   showgrid="false"
   inkscape:zoom="1.0042088"
   inkscape:cx="466.5815"
   inkscape:cy="224.91425"
   inkscape:window-x="0"
   inkscape:window-y="27"
   inkscape:window-maximized="1"
   inkscape:current-layer="layer5" />
<g
   inkscape:label="Layer 4"
   id="layer4"
   inkscape:groupmode="layer"><path
     sodipodi:nodetypes="scscccccsccss"
     id="path14046"
     d="M 888.33726,276.89702 C 880.014,263.61624 840.86152,203.82136 774.70548,143.68003 676.15831,54.092215 564.21387,6.7359374 450.96735,6.7359374 337.71789,6.7359374 225.77045,54.092215 127.21432,143.68003 53.795217,210.42145 13.609416,276.75965 11.931028,279.546 c -0.137388,0.227 -0.200097,0.39724 -0.322538,0.61819 -6.1013313,10.69153 -5.4084729,24.14255 2.126361,34.186 1.69332,2.25779 42.312153,55.90952 116.113529,109.57617 98.0783,71.33752 209.11184,109.04157 321.10405,109.04157 111.99219,0 223.03174,-37.70405 321.113,-109.03559 73.80138,-53.67561 114.42617,-107.32735 116.11952,-109.58215 8.34416,-11.12158 8.39194,-26.40926 0.15244,-37.45317 z"
     style="opacity:1;fill:#ffffff;fill-opacity:1;stroke:#ba4c14;stroke-width:2.98646;stroke-opacity:1" /></g><g
   style="display:inline"
   inkscape:label="Layer 3"
   id="layer3"
   inkscape:groupmode="layer" /><g
   style="display:inline"
   inkscape:label="Layer 2"
   id="layer2"
   inkscape:groupmode="layer"><path
     style="opacity:1;fill:url(#linearGradient14002);fill-opacity:1;stroke:none;stroke-width:0.275459;stroke-miterlimit:4;stroke-dasharray:none;stroke-opacity:1"
     d="M 726.18886,279.9027 C 691.7106,277.73176 650.81832,269.44867 611.94055,256.76082 578.02232,245.69143 552.20567,234.74734 508.58411,212.94625 480.01174,198.66647 463.7191,191.22901 445.31081,184.0625 405.07167,168.39695 369.12928,158.72893 331.51893,153.45397 313.43205,150.91721 301.109,150.0167 280.2991,149.71108 c -26.12447,-0.38396 -49.42347,1.49063 -72.40914,5.82499 -4.65195,0.87721 -8.52747,1.52873 -8.61227,1.44777 -0.50448,-0.4816 26.46494,-19.49676 37.65225,-26.54724 56.0563,-35.327988 110.11514,-54.597589 171.5105,-61.136 13.34432,-1.421133 56.68743,-1.012188 70.19876,0.662327 13.88761,1.721151 30.77125,4.743916 43.42406,7.774436 95.09816,22.777387 188.15364,88.869457 264.86537,188.118797 5.39067,6.97448 8.04168,10.96739 7.47353,11.25647 -1.442,0.73371 -19.05229,2.55061 -30.38582,3.13494 -9.81927,0.50629 -26.76334,0.35177 -37.82751,-0.34478 z"
     id="path1008" /><ellipse
     style="opacity:1;fill:url(#radialGradient14024);fill-opacity:1;stroke:none;stroke-width:1.97536;stroke-miterlimit:4;stroke-dasharray:none;stroke-opacity:1"
     id="path1002"
     cx="444.24884"
     cy="311.96225"
     rx="91.701881"
     ry="89.280388" /></g><g
   style="display:inline"
   inkscape:label="Layer 5"
   id="layer5"
   inkscape:groupmode="layer"><path
     style="opacity:1;fill:url(#linearGradient14010);fill-opacity:1;stroke-width:2.8405"
     d="M 866.9619,276.5527 C 859.04544,263.92102 821.80654,207.04863 758.88391,149.84673 665.15325,64.637519 558.68013,19.595792 450.96855,19.595792 c -107.71438,0 -214.19035,45.041727 -307.92953,130.250938 -69.830729,63.4794 -108.052436,126.5753 -109.648793,129.22549 -0.130671,0.21582 -0.190317,0.37779 -0.306774,0.58797 -5.803127,10.16897 -5.144132,22.96255 2.022434,32.51514 1.610562,2.14742 40.244136,53.17692 110.438453,104.22061 93.2847,67.85089 198.89145,103.71214 305.41003,103.71214 106.51854,0 212.13099,-35.86125 305.41853,-103.70647 70.19432,-51.0522 108.83356,-102.08169 110.44414,-104.22628 7.93633,-10.57801 7.98179,-25.11849 0.14489,-35.62263 z M 717.67401,192.67572 c 34.2024,30.90742 60.33496,62.12445 77.28703,84.52744 -13.2282,2.32353 -30.03541,4.14996 -50.2427,4.14996 -70.54367,0 -148.42152,-21.05374 -231.46623,-62.57324 -76.73029,-38.36942 -151.11149,-57.81828 -221.07574,-57.81828 -29.77122,0 -56.88659,3.51083 -81.46255,9.24295 75.86394,-60.52814 156.53967,-91.199805 240.2519,-91.199805 93.51761,-0.0028 183.25454,38.241625 266.70829,113.670975 z M 454.01927,460.6196 c -0.72435,0.0121 -1.443,0.0181 -2.16165,0.0181 -87.35372,0 -161.99341,-69.71429 -166.8961,-156.39483 -1.63613,-28.92192 4.35163,-58.08528 16.94923,-83.70086 41.89731,1.25835 85.99031,10.65754 131.70524,28.01581 -18.50014,7.0075 -31.67153,24.84296 -31.67153,45.7973 0,27.06706 21.94281,49.0099 49.00991,49.0099 27.0699,0 49.01274,-21.94284 49.01274,-49.0099 0,-6.21502 -1.20155,-12.12891 -3.30919,-17.59688 40.3805,19.5341 79.84349,34.63983 118.18447,45.24907 -13.56904,76.53431 -83.09298,137.59359 -160.82312,138.61333 z M 98.483015,295.14943 c 22.309255,-21.26395 68.180405,-56.42077 137.604945,-69.58077 -8.34821,26.33139 -12.00961,54.27901 -10.44166,82.03064 2.27808,40.29525 15.63408,77.8807 36.952,109.90159 -27.44202,-13.06628 -54.30742,-29.06963 -80.53087,-48.00154 -38.89206,-28.07542 -67.31406,-56.46336 -83.584415,-74.34992 z m 621.366795,74.35279 c -26.21774,18.92337 -53.08317,34.92955 -80.51949,47.99584 16.32999,-24.69244 28.01862,-52.68268 33.61726,-82.71238 24.47368,3.93976 48.43041,5.97924 71.7736,5.97924 0,0 0,0 0.006,0 4.03919,0 7.96757,-0.0598 11.79087,-0.17899 -10.91318,9.37648 -23.15855,19.16198 -36.66795,28.91626 z"
     id="path954" /></g>
<g
   id="g956">
</g>
<g
   id="g958">
</g>
<g
   id="g960">
</g>
<g
   id="g962">
</g>
<g
   id="g964">
</g>
<g
   id="g966">
</g>
<g
   id="g968">
</g>
<g
   id="g970">
</g>
<g
   id="g972">
</g>
<g
   id="g974">
</g>
<g
   id="g976">
</g>
<g
   id="g978">
</g>
<g
   id="g980">
</g>
<g
   id="g982">
</g>
<g
   id="g984">
</g>
<ellipse
   style="opacity:1;fill:#ffffff;fill-opacity:1;stroke:none;stroke-width:0.622933;stroke-miterlimit:4;stroke-dasharray:none;stroke-opacity:1"
   id="path1006"
   cx="470.26395"
   cy="298.37497"
   rx="13.906589"
   ry="11.39777" /><g
   style="display:inline"
   inkscape:label="Layer 1"
   id="layer1"
   inkscape:groupmode="layer" /></svg>
